<svg id="Capa_1" data-name="Capa 1" xmlns="http://www.w3.org/2000/svg" viewBox="0 0 399 181"><defs><style>.cls-1,.cls-4{fill:#39d0ff;}.cls-2{fill:#2d76b2;}.cls-3{fill:#00326d;}.cls-4{opacity:0.3;}</style></defs><rect class="cls-1" x="259.44" y="90.21" width="19.9" height="40.52"/><rect class="cls-2" x="239.37" y="90.21" width="20.07" height="40.52"/><circle class="cls-3" cx="219.08" cy="110.6" r="19.42"/><rect class="cls-1" x="199.35" y="130.54" width="40" height="40"/><path class="cls-2" d="M239.34,170.55h0v-40h40A40,40,0,0,1,239.34,170.55Z"/><path class="cls-4" d="M279.32,90.45h-40v-40h0A40,40,0,0,1,279.32,90.45Z"/><path class="cls-2" d="M159.28,50.47h40v40h0A40,40,0,0,1,159.28,50.47Z"/><rect class="cls-1" x="219.44" y="50.54" width="19.92" height="40"/><rect class="cls-3" x="199.35" y="50.54" width="20.09" height="40"/><rect class="cls-4" x="159.33" y="130.54" width="40" height="40"/><rect class="cls-4" x="159.05" y="10.45" width="40" height="40"/><rect class="cls-2" x="119.66" y="130.54" width="40" height="40"/><polygon class="cls-3" points="139.67 130.54 119.71 150.49 119.71 130.54 139.67 130.54"/></svg>