<svg id="Capa_1" data-name="Capa 1" xmlns="http://www.w3.org/2000/svg" viewBox="0 0 399 181"><defs><style>.cls-1,.cls-2{fill:#39d0ff;}.cls-1{opacity:0.3;}.cls-3{fill:#2d76b2;}.cls-4{fill:#00326d;}</style></defs><rect class="cls-1" x="119.93" y="63.92" width="106.08" height="53.27"/><rect class="cls-2" x="173.21" y="117.1" width="52.91" height="52.9"/><rect class="cls-3" x="173.07" y="11" width="52.91" height="52.9"/><rect class="cls-4" x="226.16" y="64.09" width="52.91" height="52.9"/><path class="cls-4" d="M139.47,27a3.58,3.58,0,1,1-3.58-3.58A3.58,3.58,0,0,1,139.47,27Z"/><path class="cls-4" d="M139.47,45.67a3.58,3.58,0,1,1-3.58-3.58A3.58,3.58,0,0,1,139.47,45.67Z"/><path class="cls-4" d="M157.71,27a3.59,3.59,0,1,1-3.59-3.58A3.58,3.58,0,0,1,157.71,27Z"/><path class="cls-4" d="M157.71,45.67a3.59,3.59,0,1,1-3.59-3.58A3.58,3.58,0,0,1,157.71,45.67Z"/></svg>