<svg id="Capa_1" data-name="Capa 1" xmlns="http://www.w3.org/2000/svg" viewBox="0 0 399 181"><defs><style>.cls-1{fill:#00326d;}.cls-2{fill:#2d76b2;}.cls-3,.cls-4{fill:#39d0ff;}.cls-4{opacity:0.3;}</style></defs><rect class="cls-1" x="221.16" y="28.96" width="30.77" height="30.77"/><rect class="cls-2" x="190.37" y="121.27" width="30.77" height="30.77"/><rect class="cls-2" x="221.16" y="90.51" width="30.77" height="30.77"/><path class="cls-2" d="M221.16,152h0V121.28h30.77A30.77,30.77,0,0,1,221.16,152Z"/><rect class="cls-3" x="236.61" y="59.74" width="15.32" height="30.77"/><rect class="cls-2" x="221.16" y="59.74" width="15.45" height="30.77"/><polygon class="cls-1" points="205.76 121.27 190.42 136.61 190.42 121.27 205.76 121.27"/><path class="cls-1" d="M251.93,90.54v30.73H251a15.38,15.38,0,0,1,.93-30.73Z"/><path class="cls-1" d="M168.76,78.17A21.89,21.89,0,0,1,190.42,100H168.76Z"/><path class="cls-4" d="M168.61,72.06h0a21.53,21.53,0,0,1-21.53-21.53h0A21.53,21.53,0,0,1,168.61,29h0a21.53,21.53,0,0,1,21.53,21.53h0A21.53,21.53,0,0,1,168.61,72.06Z"/><rect class="cls-1" x="168.76" y="100.05" width="21.67" height="21.67"/><path class="cls-1" d="M168.74,78.17A21.87,21.87,0,0,0,147.08,100h21.66Z"/><rect class="cls-2" x="147.07" y="100.05" width="21.67" height="21.67" transform="translate(315.81 221.77) rotate(-180)"/></svg>