<svg id="Capa_1" data-name="Capa 1" xmlns="http://www.w3.org/2000/svg" viewBox="0 0 399 181"><defs><style>.cls-1{fill:#2d76b2;}.cls-2{fill:#00326d;}.cls-3,.cls-4{fill:#39d0ff;}.cls-4{opacity:0.3;}.cls-5{fill:#fff;}</style></defs><rect class="cls-1" x="89.33" y="116.64" width="44.04" height="44.04" transform="translate(250 27.31) rotate(90)"/><polygon class="cls-2" points="133.44 116.6 89.35 160.68 89.35 116.6 133.44 116.6"/><rect class="cls-1" x="265.62" y="28.44" width="44.04" height="44.04"/><rect class="cls-2" x="265.62" y="72.48" width="44.04" height="44.04"/><rect class="cls-3" x="287.73" y="116.54" width="21.93" height="44.04"/><rect class="cls-1" x="265.62" y="116.54" width="22.11" height="44.04"/><polygon class="cls-2" points="309.68 28.44 265.62 72.48 265.62 28.44 309.68 28.44"/><rect class="cls-4" x="287.64" y="93.24" width="22.02" height="1.63"/><rect class="cls-4" x="287.64" y="96.36" width="22.02" height="1.63"/><rect class="cls-4" x="287.64" y="99.49" width="22.02" height="1.63"/><rect class="cls-4" x="287.64" y="102.62" width="22.02" height="1.63"/><rect class="cls-4" x="287.64" y="105.74" width="22.02" height="1.63"/><rect class="cls-4" x="287.64" y="108.87" width="22.02" height="1.63"/><rect class="cls-4" x="287.64" y="111.99" width="22.02" height="1.63"/><rect class="cls-4" x="287.64" y="89.8" width="22.02" height="1.63"/><rect class="cls-4" x="287.64" y="86.36" width="22.02" height="1.63"/><rect class="cls-4" x="287.64" y="82.92" width="22.02" height="1.63"/><rect class="cls-4" x="287.64" y="79.48" width="22.02" height="1.63"/><rect class="cls-4" x="287.64" y="76.04" width="22.02" height="1.63"/><rect class="cls-2" x="177.46" y="72.57" width="44.04" height="44.04"/><rect class="cls-2" x="177.46" y="116.63" width="44.04" height="44.04"/><polygon class="cls-3" points="221.54 72.58 177.45 116.66 177.45 72.58 221.54 72.58"/><path class="cls-5" d="M194.75,128.44a3.91,3.91,0,1,1-3.91-3.91A3.92,3.92,0,0,1,194.75,128.44Z"/><path class="cls-5" d="M194.75,148.89a3.91,3.91,0,1,1-3.91-3.92A3.91,3.91,0,0,1,194.75,148.89Z"/><path class="cls-5" d="M214.67,128.44a3.92,3.92,0,1,1-3.92-3.91A3.93,3.93,0,0,1,214.67,128.44Z"/><path class="cls-5" d="M214.67,148.89a3.92,3.92,0,1,1-3.92-3.92A3.92,3.92,0,0,1,214.67,148.89Z"/></svg>