<svg id="Capa_1" data-name="Capa 1" xmlns="http://www.w3.org/2000/svg" viewBox="0 0 399 181"><defs><style>.cls-1{fill:#00326d;}.cls-2,.cls-3{fill:#39d0ff;}.cls-2{opacity:0.3;}</style></defs><path class="cls-1" d="M199.66,42.16V77.57H163.88a35.23,35.23,0,0,1,.23-3.73c0-.4.09-.79.15-1.18a34.43,34.43,0,0,1,.67-3.39c.1-.4.2-.8.32-1.19.33-1.15.71-2.28,1.15-3.39.16-.4.33-.79.5-1.18a33.69,33.69,0,0,1,1.72-3.39c.22-.4.46-.79.7-1.18a34.1,34.1,0,0,1,2.42-3.39c.32-.41.65-.8,1-1.18q.78-.9,1.62-1.74T176.12,51c.47-.41.94-.8,1.42-1.18a35.13,35.13,0,0,1,5.19-3.4c.78-.42,1.57-.82,2.39-1.18a35.71,35.71,0,0,1,14.52-3.08v0Z"/><path class="cls-2" d="M199.66,72.66v1.18H164.11c0-.4.09-.79.15-1.18Z"/><path class="cls-2" d="M199.66,68.08v1.19H164.93c.1-.4.2-.8.32-1.19Z"/><path class="cls-2" d="M199.66,63.51v1.18H166.4c.16-.4.33-.79.5-1.18Z"/><path class="cls-2" d="M199.66,58.94v1.18h-31c.22-.4.46-.79.7-1.18Z"/><path class="cls-2" d="M199.66,54.37v1.18H171.74c.32-.41.65-.8,1-1.18Z"/><path class="cls-2" d="M199.66,49.8V51H176.12c.47-.41.94-.8,1.42-1.18Z"/><path class="cls-2" d="M199.66,45.22V46.4H182.73c.78-.42,1.57-.82,2.39-1.18Z"/><path class="cls-2" d="M235.12,77.53H199.69V42.1h0a35.43,35.43,0,0,1,35.43,35.43Z"/><path class="cls-3" d="M163.88,77.57a35.62,35.62,0,0,0,71.24,0Z"/><path class="cls-1" d="M145.91,10.86V46.27H110.13a35.23,35.23,0,0,1,.23-3.73c0-.4.09-.79.15-1.18a34.43,34.43,0,0,1,.67-3.39c.1-.4.21-.8.32-1.19a33.86,33.86,0,0,1,1.16-3.39c.15-.39.32-.79.49-1.18a33.69,33.69,0,0,1,1.72-3.39c.22-.39.46-.79.71-1.18A32.46,32.46,0,0,1,118,24.25c.32-.41.65-.8,1-1.18q.78-.9,1.62-1.74t1.77-1.65c.47-.41.94-.8,1.42-1.18A35.13,35.13,0,0,1,129,15.1c.78-.42,1.57-.81,2.39-1.18a35.75,35.75,0,0,1,14.52-3.08v0Z"/><path class="cls-2" d="M145.91,41.36v1.18H110.36c0-.4.09-.79.15-1.18Z"/><path class="cls-2" d="M145.91,36.78V38H111.18c.1-.4.21-.8.32-1.19Z"/><path class="cls-2" d="M145.91,32.21v1.18H112.66c.15-.39.32-.79.49-1.18Z"/><path class="cls-2" d="M145.91,27.64v1.18h-31c.22-.39.46-.79.71-1.18Z"/><path class="cls-2" d="M145.91,23.07v1.18H118c.32-.41.65-.8,1-1.18Z"/><path class="cls-2" d="M145.91,18.5v1.18H122.37c.47-.41.94-.8,1.42-1.18Z"/><path class="cls-2" d="M145.91,13.92V15.1H129c.78-.42,1.57-.81,2.39-1.18Z"/><path class="cls-2" d="M288.87,46.27H253.44V10.84h0a35.43,35.43,0,0,1,35.43,35.43Z"/><path class="cls-3" d="M163.94,134.54a35.63,35.63,0,0,0,71.25,0Z"/></svg>