<svg id="Capa_1" data-name="Capa 1" xmlns="http://www.w3.org/2000/svg" viewBox="0 0 399 181"><defs><style>.cls-1{fill:#00326d;}.cls-2{fill:#39d0ff;opacity:0.3;}.cls-3{fill:#2d76b2;}</style></defs><path class="cls-1" d="M259.6,131.33a19.46,19.46,0,0,1,19.26,19.44H259.6Z"/><path class="cls-2" d="M259.47,125.89h0a19.14,19.14,0,0,1-19.14-19.14h0a19.14,19.14,0,0,1,19.14-19.14h0a19.14,19.14,0,0,1,19.14,19.14h0A19.14,19.14,0,0,1,259.47,125.89Z"/><rect class="cls-3" x="240.53" y="87.82" width="19.1" height="19.09"/><rect class="cls-1" x="259.6" y="150.78" width="19.26" height="19.26"/><path class="cls-1" d="M259.58,131.33a19.46,19.46,0,0,0-19.26,19.44h19.26Z"/><rect class="cls-3" x="240.32" y="150.78" width="19.26" height="19.26" transform="translate(499.9 320.83) rotate(-180)"/><path class="cls-2" d="M186.78,31.45h0A19.15,19.15,0,0,1,205.93,12.3h0a19.14,19.14,0,0,1,19.14,19.15h0a19.14,19.14,0,0,1-19.14,19.14h0A19.14,19.14,0,0,1,186.78,31.45Z"/><path class="cls-1" d="M205.61,56.64h0A19.26,19.26,0,0,1,224.87,75.9V95.16a0,0,0,0,1,0,0H186.35a0,0,0,0,1,0,0V75.9A19.26,19.26,0,0,1,205.61,56.64Z"/><path class="cls-3" d="M205.61,56.64h0A19.26,19.26,0,0,0,186.35,75.9V95.16h19.24Z"/><path class="cls-1" d="M166.51,106.78A19.45,19.45,0,0,1,147.07,126h0V106.78Z"/><path class="cls-1" d="M166.51,106.76A19.45,19.45,0,0,0,147.07,87.5h0v19.25Z"/><path class="cls-2" d="M128.05,106.45h0A19.14,19.14,0,0,1,147.19,87.3h0a19.14,19.14,0,0,1,19.14,19.15h0a19.14,19.14,0,0,1-19.14,19.14h0A19.14,19.14,0,0,1,128.05,106.45Z"/><path class="cls-1" d="M147.19,131.32h0a19.2,19.2,0,0,0-10.64,3.21,18.62,18.62,0,0,1-8.62,35.12v.19h38.52V150.58A19.26,19.26,0,0,0,147.19,131.32Z"/><path class="cls-3" d="M146.53,151a18.63,18.63,0,0,0-10-16.5,19.25,19.25,0,0,0-8.62,16.05v19.07A18.62,18.62,0,0,0,146.53,151Z"/><path class="cls-1" d="M161.84,58.1a1.8,1.8,0,1,1-1.79-1.79A1.79,1.79,0,0,1,161.84,58.1Z"/><path class="cls-1" d="M171,58.1a1.8,1.8,0,1,1-1.8-1.79A1.79,1.79,0,0,1,171,58.1Z"/><path class="cls-1" d="M180,58.1a1.8,1.8,0,1,1-1.8-1.79A1.79,1.79,0,0,1,180,58.1Z"/><path class="cls-1" d="M152.78,58.1a1.8,1.8,0,1,1-1.8-1.79A1.8,1.8,0,0,1,152.78,58.1Z"/><path class="cls-1" d="M152.78,66.1a1.8,1.8,0,1,1-1.8-1.79A1.8,1.8,0,0,1,152.78,66.1Z"/><path class="cls-1" d="M152.78,74.1a1.8,1.8,0,1,1-1.8-1.79A1.8,1.8,0,0,1,152.78,74.1Z"/><path class="cls-1" d="M248.33,58.1a1.8,1.8,0,1,0,1.8-1.79A1.79,1.79,0,0,0,248.33,58.1Z"/><path class="cls-1" d="M239.18,58.1a1.8,1.8,0,1,0,1.8-1.79A1.8,1.8,0,0,0,239.18,58.1Z"/><path class="cls-1" d="M230.18,58.1a1.8,1.8,0,1,0,1.8-1.79A1.8,1.8,0,0,0,230.18,58.1Z"/><path class="cls-1" d="M257.4,58.1a1.8,1.8,0,1,0,1.79-1.79A1.79,1.79,0,0,0,257.4,58.1Z"/><path class="cls-1" d="M257.4,66.1a1.8,1.8,0,1,0,1.79-1.79A1.79,1.79,0,0,0,257.4,66.1Z"/><path class="cls-1" d="M257.4,74.1a1.8,1.8,0,1,0,1.79-1.79A1.79,1.79,0,0,0,257.4,74.1Z"/></svg>