<svg id="Capa_1" data-name="Capa 1" xmlns="http://www.w3.org/2000/svg" viewBox="0 0 399 181"><defs><style>.cls-1{fill:#00326d;}.cls-2{fill:#39d0ff;opacity:0.3;}.cls-3{fill:#2d76b2;}</style></defs><path class="cls-1" d="M199.6,82.33a19.46,19.46,0,0,1,19.26,19.44H199.6Z"/><path class="cls-2" d="M199.47,76.89h0a19.14,19.14,0,0,1-19.14-19.14h0a19.14,19.14,0,0,1,19.14-19.14h0a19.14,19.14,0,0,1,19.14,19.14h0A19.14,19.14,0,0,1,199.47,76.89Z"/><rect class="cls-3" x="199.53" y="57.82" width="19.1" height="19.09"/><rect class="cls-1" x="199.6" y="101.78" width="19.26" height="19.26"/><path class="cls-1" d="M199.58,82.33a19.46,19.46,0,0,0-19.26,19.44h19.26Z"/><rect class="cls-3" x="180.32" y="101.78" width="19.26" height="19.26" transform="translate(379.9 222.83) rotate(-180)"/><path class="cls-2" d="M236.78,106.45h0A19.15,19.15,0,0,1,255.93,87.3h0a19.14,19.14,0,0,1,19.14,19.15h0a19.14,19.14,0,0,1-19.14,19.14h0A19.14,19.14,0,0,1,236.78,106.45Z"/><path class="cls-1" d="M255.61,131.64h0a19.26,19.26,0,0,1,19.26,19.26v19.26a0,0,0,0,1,0,0H236.35a0,0,0,0,1,0,0V150.9A19.26,19.26,0,0,1,255.61,131.64Z"/><path class="cls-3" d="M255.61,131.64h0a19.26,19.26,0,0,0-19.26,19.26v19.26h19.24Z"/><path class="cls-1" d="M162.51,106.78A19.45,19.45,0,0,1,143.07,126h0V106.78Z"/><path class="cls-1" d="M162.51,106.76A19.45,19.45,0,0,0,143.07,87.5h0v19.25Z"/><path class="cls-2" d="M124.05,106.45h0A19.14,19.14,0,0,1,143.19,87.3h0a19.14,19.14,0,0,1,19.14,19.15h0a19.14,19.14,0,0,1-19.14,19.14h0A19.14,19.14,0,0,1,124.05,106.45Z"/><path class="cls-1" d="M143.19,131.32h0a19.2,19.2,0,0,0-10.64,3.21,18.62,18.62,0,0,1-8.62,35.12v.19h38.52V150.58A19.26,19.26,0,0,0,143.19,131.32Z"/><path class="cls-3" d="M142.53,151a18.63,18.63,0,0,0-10-16.5,19.25,19.25,0,0,0-8.62,16.05v19.07A18.62,18.62,0,0,0,142.53,151Z"/><path class="cls-1" d="M144.84,58.71a1.8,1.8,0,1,1-1.79-1.8A1.8,1.8,0,0,1,144.84,58.71Z"/><path class="cls-1" d="M144.84,68.1a1.8,1.8,0,1,1-1.79-1.79A1.79,1.79,0,0,1,144.84,68.1Z"/><path class="cls-1" d="M144.84,77.55a1.8,1.8,0,1,1-1.79-1.8A1.79,1.79,0,0,1,144.84,77.55Z"/><path class="cls-1" d="M154,68.1a1.8,1.8,0,1,1-1.8-1.79A1.79,1.79,0,0,1,154,68.1Z"/><path class="cls-1" d="M135.78,68.1a1.8,1.8,0,1,1-1.8-1.79A1.8,1.8,0,0,1,135.78,68.1Z"/><path class="cls-1" d="M257.58,58.71a1.8,1.8,0,1,1-1.8-1.8A1.8,1.8,0,0,1,257.58,58.71Z"/><path class="cls-1" d="M257.58,68.1a1.8,1.8,0,1,1-1.8-1.79A1.79,1.79,0,0,1,257.58,68.1Z"/><path class="cls-1" d="M257.58,77.55a1.8,1.8,0,1,1-1.8-1.8A1.79,1.79,0,0,1,257.58,77.55Z"/><path class="cls-1" d="M266.73,68.1a1.8,1.8,0,1,1-1.8-1.79A1.8,1.8,0,0,1,266.73,68.1Z"/><path class="cls-1" d="M248.52,68.1a1.8,1.8,0,1,1-1.8-1.79A1.8,1.8,0,0,1,248.52,68.1Z"/><path class="cls-1" d="M201.7,12.64a1.8,1.8,0,1,1-1.79-1.8A1.79,1.79,0,0,1,201.7,12.64Z"/><path class="cls-1" d="M201.7,22a1.8,1.8,0,1,1-1.79-1.8A1.79,1.79,0,0,1,201.7,22Z"/><path class="cls-1" d="M201.7,31.47a1.8,1.8,0,1,1-1.79-1.8A1.8,1.8,0,0,1,201.7,31.47Z"/><path class="cls-1" d="M210.85,22a1.8,1.8,0,1,1-1.8-1.8A1.79,1.79,0,0,1,210.85,22Z"/><path class="cls-1" d="M192.64,22a1.8,1.8,0,1,1-1.8-1.8A1.8,1.8,0,0,1,192.64,22Z"/></svg>