<svg id="Capa_1" data-name="Capa 1" xmlns="http://www.w3.org/2000/svg" viewBox="0 0 399 181"><defs><style>.cls-1{fill:#00326d;}.cls-2{fill:#2d76b2;}.cls-3,.cls-4{fill:#39d0ff;}.cls-4{opacity:0.3;}</style></defs><rect class="cls-1" x="189.84" y="46.93" width="30.77" height="30.77"/><rect class="cls-2" x="159.06" y="139.24" width="30.77" height="30.77"/><rect class="cls-2" x="189.84" y="108.48" width="30.77" height="30.77"/><path class="cls-2" d="M189.84,170h0V139.25h30.77A30.77,30.77,0,0,1,189.84,170Z"/><rect class="cls-3" x="205.29" y="77.71" width="15.32" height="30.77"/><rect class="cls-2" x="189.84" y="77.71" width="15.45" height="30.77"/><polygon class="cls-2" points="204.77 15.93 174 46.68 204.77 46.68 204.77 15.93"/><polygon class="cls-1" points="189.84 46.19 189.84 46.19 189.84 46.19 189.84 46.19"/><polygon class="cls-1" points="209.17 10.98 209.17 41.75 239.94 41.75 239.94 41.75 209.18 10.98 209.17 10.98"/><polygon class="cls-1" points="174.45 139.24 159.1 154.58 159.1 139.24 174.45 139.24"/><rect class="cls-4" x="205.23" y="61.43" width="15.38" height="1.14"/><path class="cls-1" d="M220.61,108.51v30.74h-.92a15.38,15.38,0,0,1,.92-30.74Z"/></svg>