<svg id="Capa_1" data-name="Capa 1" xmlns="http://www.w3.org/2000/svg" viewBox="0 0 399 181"><defs><style>.cls-1,.cls-4{fill:#39d0ff;}.cls-1,.cls-2{fill-rule:evenodd;}.cls-2,.cls-3{fill:#00326d;}.cls-4{opacity:0.3;}</style></defs><path class="cls-1" d="M245.4,65.51a52.25,52.25,0,0,1-70.89,70.89L154.6,156.31A79.67,79.67,0,0,0,265.31,45.6Z"/><path class="cls-2" d="M133.69,135.4l19.91-19.91A52.25,52.25,0,0,1,224.49,44.6L244.4,24.69A79.67,79.67,0,0,0,133.69,135.4Z"/><path class="cls-3" d="M198.25,93.24h2.44a18,18,0,0,1,18,18v20.41a0,0,0,0,1,0,0H180.28a0,0,0,0,1,0,0V111.21A18,18,0,0,1,198.25,93.24Z"/><path class="cls-3" d="M218.72,68.79A19.38,19.38,0,0,1,199.35,88h0V68.79Z"/><path class="cls-3" d="M218.72,68.77a19.38,19.38,0,0,0-19.37-19.2h0V68.77Z"/><path class="cls-4" d="M180.39,68.45h0a19.07,19.07,0,0,1,19.08-19.07h0a19.07,19.07,0,0,1,19.07,19.07h0a19.07,19.07,0,0,1-19.07,19.08h0A19.08,19.08,0,0,1,180.39,68.45Z"/></svg>