<svg id="Capa_1" data-name="Capa 1" xmlns="http://www.w3.org/2000/svg" viewBox="0 0 399 181"><defs><style>.cls-1{fill:#00326d;}.cls-2{fill:#39d0ff;opacity:0.3;}.cls-3{fill:#2d76b2;}</style></defs><path class="cls-1" d="M91.32,95.37a37.85,37.85,0,0,1,37.47,37.83h0v0H91.32Z"/><path class="cls-2" d="M91.06,84.79h0A37.25,37.25,0,0,1,53.81,47.54h0A37.24,37.24,0,0,1,91.06,10.3h0A37.24,37.24,0,0,1,128.3,47.54h0A37.24,37.24,0,0,1,91.06,84.79Z"/><rect class="cls-3" x="91.17" y="47.69" width="37.16" height="37.14"/><rect class="cls-1" x="91.31" y="133.22" width="37.48" height="37.48"/><path class="cls-3" d="M91.28,95.37A37.85,37.85,0,0,0,53.8,133.2h0v0H91.28Z"/><rect class="cls-3" x="53.8" y="133.22" width="37.48" height="37.48" transform="translate(145.08 303.93) rotate(-180)"/><path class="cls-1" d="M305.13,95.32h4.95a35,35,0,0,1,35,35v39.95a0,0,0,0,1,0,0H270.13a0,0,0,0,1,0,0V130.32A35,35,0,0,1,305.13,95.32Z"/><path class="cls-1" d="M345.2,47.76a37.85,37.85,0,0,1-37.83,37.48v0h0V47.76Z"/><path class="cls-1" d="M345.2,48.22a37.83,37.83,0,0,0-37.83-37.47v0h0V48.22Z"/><path class="cls-2" d="M307.6,85.24h0A37.25,37.25,0,0,1,270.35,48h0A37.24,37.24,0,0,1,307.6,10.75h0"/><path class="cls-1" d="M217.87,89.92a5.1,5.1,0,1,1-5.09-5.1A5.09,5.09,0,0,1,217.87,89.92Z"/><path class="cls-1" d="M217.87,116.54a5.1,5.1,0,1,1-5.09-5.1A5.09,5.09,0,0,1,217.87,116.54Z"/><path class="cls-1" d="M243.8,89.92a5.1,5.1,0,1,1-5.1-5.1A5.09,5.09,0,0,1,243.8,89.92Z"/><path class="cls-1" d="M243.8,116.54a5.1,5.1,0,1,1-5.1-5.1A5.09,5.09,0,0,1,243.8,116.54Z"/><path class="cls-1" d="M165.39,89.92a5.1,5.1,0,1,1-5.09-5.1A5.09,5.09,0,0,1,165.39,89.92Z"/><circle class="cls-1" cx="160.3" cy="116.54" r="5.09"/><path class="cls-1" d="M191.32,89.92a5.1,5.1,0,1,1-5.1-5.1A5.09,5.09,0,0,1,191.32,89.92Z"/><circle class="cls-1" cx="186.22" cy="116.54" r="5.09"/></svg>